<svg xmlns="http://www.w3.org/2000/svg" viewBox="0 0 900 420" role="img" aria-labelledby="title desc">
  <title id="title">AI healthcare chatbot illustration</title>
  <desc id="desc">Neon healthcare chatbot with medical and AI symbols.</desc>
  <defs>
    <linearGradient id="bg" x1="0" x2="1" y1="0" y2="1"><stop stop-color="#0b1224"/><stop offset=".55" stop-color="#102a43"/><stop offset="1" stop-color="#2e1065"/></linearGradient>
    <linearGradient id="g" x1="0" x2="1"><stop stop-color="#22d3ee"/><stop offset="1" stop-color="#a855f7"/></linearGradient>
    <filter id="glow"><feGaussianBlur stdDeviation="5" result="b"/><feMerge><feMergeNode in="b"/><feMergeNode in="SourceGraphic"/></feMerge></filter>
  </defs>
  <rect width="900" height="420" fill="url(#bg)"/>
  <g opacity=".18" stroke="#67e8f9"><circle cx="450" cy="210" r="170"/><circle cx="450" cy="210" r="120"/><path d="M80 340C210 230 300 380 450 210s260-20 370-132"/></g>
  <rect x="270" y="95" width="360" height="230" rx="38" fill="#071827" stroke="url(#g)" stroke-width="7" filter="url(#glow)"/>
  <path d="M380 325l-50 55 110-55" fill="#071827" stroke="#22d3ee" stroke-width="6" stroke-linejoin="round"/>
  <circle cx="390" cy="185" r="34" fill="#111827" stroke="#67e8f9" stroke-width="5"/>
  <circle cx="510" cy="185" r="34" fill="#111827" stroke="#67e8f9" stroke-width="5"/>
  <path d="M386 185h210M450 125v125" stroke="#67e8f9" stroke-width="16" stroke-linecap="round"/>
  <path d="M330 270h80l22-44 32 78 30-58 22 24h58" fill="none" stroke="#a78bfa" stroke-width="8" stroke-linecap="round" stroke-linejoin="round"/>
  <text x="450" y="72" text-anchor="middle" fill="#cffafe" font-family="Inter,Arial,sans-serif" font-size="30" font-weight="800">AI Healthcare Assistant</text>
  <g fill="#22d3ee" opacity=".9"><circle cx="160" cy="115" r="10"/><circle cx="735" cy="280" r="12"/><circle cx="205" cy="302" r="8"/><circle cx="720" cy="110" r="8"/></g>
</svg>
